<?xml version="1.0" encoding="UTF-8"?>
<svg version="1.1" xmlns="http://www.w3.org/2000/svg" width="500" height="500">
<path d="M0 0 C2.875 0.875 2.875 0.875 4.875 3.875 C5.11550903 6.17192078 5.11550903 6.17192078 5.10205078 8.8972168 C5.10180908 9.9322937 5.10156738 10.96737061 5.10131836 12.03381348 C5.08597046 13.66256409 5.08597046 13.66256409 5.0703125 15.32421875 C5.06829834 16.32376587 5.06628418 17.32331299 5.06420898 18.35314941 C5.05373904 22.08964624 5.02581649 25.82607769 5 29.5625 C4.95875 37.915625 4.9175 46.26875 4.875 54.875 C23.685 54.875 42.495 54.875 61.875 54.875 C61.75627257 37.89670765 61.75627257 37.89670765 61.60473633 20.91870117 C61.5959762 18.79346161 61.58833114 16.66821703 61.58203125 14.54296875 C61.5590094 12.88183044 61.5590094 12.88183044 61.53552246 11.18713379 C61.53497864 9.60406433 61.53497864 9.60406433 61.53442383 7.98901367 C61.52443108 6.6133448 61.52443108 6.6133448 61.51423645 5.20988464 C61.94588847 2.41620533 62.626971 1.53955471 64.875 -0.125 C67.3125 -0.5625 67.3125 -0.5625 69.875 -0.125 C72.39324836 1.89070904 73.7178958 3.08553195 74.35601807 6.29217529 C74.3426944 7.63786591 74.3426944 7.63786591 74.32910156 9.01074219 C74.32879944 10.03149841 74.32849731 11.05225464 74.32818604 12.10394287 C74.30754089 13.19886047 74.28689575 14.29377808 74.265625 15.421875 C74.25996521 16.5482135 74.25430542 17.674552 74.24847412 18.83502197 C74.22608545 22.43211382 74.17588213 26.02820926 74.125 29.625 C74.10493833 32.0637877 74.08668698 34.50259101 74.0703125 36.94140625 C74.02621244 42.91961074 73.95927463 48.89723419 73.875 54.875 C74.71478394 54.85928955 74.71478394 54.85928955 75.5715332 54.84326172 C78.11014307 54.80166674 80.6486812 54.77566315 83.1875 54.75 C84.06857422 54.73324219 84.94964844 54.71648437 85.85742188 54.69921875 C86.70498047 54.69277344 87.55253906 54.68632813 88.42578125 54.6796875 C89.20606689 54.66921387 89.98635254 54.65874023 90.7902832 54.64794922 C92.875 54.875 92.875 54.875 95.875 56.875 C96.25595093 59.7124176 96.25595093 59.7124176 96.26318359 63.38500977 C96.26844055 64.05359512 96.27369751 64.72218048 96.27911377 65.411026 C96.29235507 67.62972145 96.28355483 69.84770298 96.2734375 72.06640625 C96.27545873 73.61140582 96.27837058 75.15640445 96.28213501 76.70140076 C96.2865653 79.94726603 96.28011109 83.19288413 96.26611328 86.4387207 C96.24912061 90.57896438 96.2587943 94.71862037 96.27683067 98.8588419 C96.28773534 102.0546857 96.28419005 105.25039319 96.2764473 108.44624138 C96.27445847 109.97111011 96.27685781 111.49599158 96.28388596 113.02084541 C96.32410273 124.21155342 94.83754133 132.48075343 89.6875 142.4375 C89.15769531 143.47003906 88.62789063 144.50257813 88.08203125 145.56640625 C87.68371094 146.32824219 87.28539062 147.09007812 86.875 147.875 C86.215 147.875 85.555 147.875 84.875 147.875 C84.875 148.535 84.875 149.195 84.875 149.875 C84.215 149.875 83.555 149.875 82.875 149.875 C82.875 150.535 82.875 151.195 82.875 151.875 C82.215 151.875 81.555 151.875 80.875 151.875 C80.689375 152.431875 80.50375 152.98875 80.3125 153.5625 C75.31183847 161.60704247 64.47828352 163.99458385 55.91772461 166.43237305 C52.52349943 167.16784935 49.08089007 166.97718778 45.625 166.9375 C44.87992187 166.93298828 44.13484375 166.92847656 43.3671875 166.92382812 C41.5364236 166.91209246 39.70570127 166.8941585 37.875 166.875 C37.91232432 185.20914002 37.97241442 203.54306161 38.05890274 221.87703514 C38.0985505 230.39165905 38.13101487 238.90619244 38.14599609 247.42089844 C38.15908716 254.85060155 38.18623927 262.28010431 38.22961307 269.7096945 C38.25206209 273.63613558 38.26792079 277.56233108 38.26688385 281.48884201 C37.81017085 310.05423635 37.81017085 310.05423635 47 336.6875 C51.3132015 344.64848343 51.3132015 344.64848343 52.875 348.875 C53.535 348.875 54.195 348.875 54.875 348.875 C55.88851664 350.53348177 56.88620795 352.20165961 57.875 353.875 C58.9578125 354.9578125 58.9578125 354.9578125 60.0625 356.0625 C60.660625 356.660625 61.25875 357.25875 61.875 357.875 C61.875 358.535 61.875 359.195 61.875 359.875 C62.535 359.875 63.195 359.875 63.875 359.875 C63.875 360.535 63.875 361.195 63.875 361.875 C64.42929688 362.12765625 64.98359375 362.3803125 65.5546875 362.640625 C68.25022004 364.07461201 70.55994415 365.78962271 73 367.625 C91.92547436 381.4139161 113.25763254 387.50731353 136.8125 384.1875 C153.26873751 381.01442229 166.18696379 374.20524358 178.94921875 363.34375 C180.875 361.875 180.875 361.875 182.875 361.875 C183.13023437 361.30394531 183.38546875 360.73289062 183.6484375 360.14453125 C185.00955763 357.62602552 186.62518026 355.72489169 188.5 353.5625 C203.91530556 334.42625861 207.01197238 313.14164741 207.04858398 289.26074219 C207.05489784 287.47757305 207.06166455 285.69440547 207.06884766 283.91123962 C207.083461 280.08413775 207.09520855 276.25704173 207.10479546 272.42992401 C207.12032116 266.36831358 207.14427053 260.30675418 207.16969299 254.24517822 C207.24070024 237.01260614 207.30060883 219.78000525 207.35180664 202.54736328 C207.3801867 193.01992321 207.41560659 183.49253441 207.45846039 173.96514821 C207.48509816 167.94998289 207.50308551 161.93487545 207.51449764 155.91966295 C207.52368016 152.16381276 207.54106785 148.40803245 207.56067657 144.65222359 C207.56809428 142.92257611 207.57222961 141.19291063 207.57267189 139.4632473 C207.58271992 117.70622572 211.04812383 98.2437794 226.1640625 81.48828125 C229.73065708 78.12525942 233.74055615 75.48528023 237.875 72.875 C238.73222656 72.32457031 239.58945312 71.77414063 240.47265625 71.20703125 C247.63512995 66.93486358 254.68273018 65.17962377 262.875 63.875 C263.72835938 63.7203125 264.58171875 63.565625 265.4609375 63.40625 C283.5001443 60.76928954 300.26882497 68.07238726 314.44140625 78.54296875 C314.91449219 78.98253906 315.38757813 79.42210938 315.875 79.875 C315.875 80.535 315.875 81.195 315.875 81.875 C316.535 81.875 317.195 81.875 317.875 81.875 C330.48777641 96.30583427 335.36035444 111.66800268 335.21557617 130.42236328 C335.21472847 131.97061649 335.21520782 133.5188709 335.21690369 135.06712341 C335.2177595 139.24212542 335.20020134 143.41686542 335.17918181 147.59180689 C335.16034551 151.96531479 335.15865912 156.33882962 335.15510559 160.71237183 C335.14580546 168.98172468 335.12121938 177.25095762 335.09105712 185.52025783 C335.05744962 194.93988244 335.04101118 204.35951297 335.02597082 213.77918267 C334.99466787 233.14452293 334.94194717 252.5097518 334.875 271.875 C335.79589668 271.87105728 335.79589668 271.87105728 336.73539734 271.86703491 C337.54289932 271.86499054 338.35040131 271.86294617 339.18237305 271.86083984 C339.98192917 271.85821136 340.78148529 271.85558289 341.60527039 271.85287476 C355.12291867 271.98464431 367.06842703 277.73261723 376.875 286.875 C384.85350503 295.10852574 388.9551655 307.09660162 389.03613281 318.44384766 C389.04574036 319.53492828 389.0553479 320.62600891 389.06524658 321.75015259 C389.0716214 323.50191299 389.0716214 323.50191299 389.078125 325.2890625 C389.08382507 326.49565521 389.08952515 327.70224792 389.09539795 328.94540405 C389.10483182 331.49223965 389.11137551 334.03908736 389.11523438 336.5859375 C389.12498104 340.49240072 389.1560369 344.39834677 389.1875 348.3046875 C389.19402627 350.77864271 389.19927821 353.25260167 389.203125 355.7265625 C389.2154718 356.89845123 389.2278186 358.07033997 389.24053955 359.27774048 C389.23753845 360.36251678 389.23453735 361.44729309 389.23144531 362.56494141 C389.23509094 363.52026764 389.23873657 364.47559387 389.24249268 365.45986938 C388.80917209 368.30761541 388.12762984 369.14535877 385.875 370.875 C382.56505287 372.52997356 378.88377 371.97584335 375.25 371.9375 C374.44820313 371.93298828 373.64640625 371.92847656 372.8203125 371.92382812 C370.83850994 371.91203168 368.85674567 371.89409605 366.875 371.875 C366.88499275 372.74823662 366.88499275 372.74823662 366.89518738 373.63911438 C366.9614769 379.68961066 367.00677393 385.74000405 367.03979492 391.79077148 C367.05489602 394.04992868 367.07537842 396.30905649 367.10131836 398.56811523 C367.13764308 401.81241093 367.15471308 405.05631956 367.16796875 408.30078125 C367.19119453 409.81965691 367.19119453 409.81965691 367.21488953 411.36921692 C367.21511612 412.30996567 367.21534271 413.25071442 367.21557617 414.2199707 C367.22556892 415.46240288 367.22556892 415.46240288 367.23576355 416.72993469 C366.875 418.875 366.875 418.875 365.57637024 420.66984558 C363.875 421.875 363.875 421.875 360.3125 421.8125 C356.875 420.875 356.875 420.875 355.67533875 419.08277893 C354.83394767 416.76175487 354.62726608 415.07302552 354.63208008 412.61303711 C354.62900345 411.78215073 354.62592682 410.95126434 354.62275696 410.09519958 C354.63353523 408.76223595 354.63353523 408.76223595 354.64453125 407.40234375 C354.64498947 406.48288467 354.64544769 405.5634256 354.6459198 404.61610413 C354.64893699 402.67528999 354.65680733 400.73447816 354.66918945 398.79370117 C354.68745355 395.82006268 354.68969899 392.84673563 354.68945312 389.87304688 C354.69436834 387.98697647 354.70019667 386.10090818 354.70703125 384.21484375 C354.70814407 383.32417709 354.7092569 382.43351044 354.71040344 381.51585388 C354.71678329 380.68811966 354.72316315 379.86038544 354.72973633 379.00756836 C354.73354813 378.28016953 354.73735992 377.55277069 354.74128723 376.80332947 C354.875 374.875 354.875 374.875 355.875 371.875 C339.375 371.875 322.875 371.875 305.875 371.875 C305.66495948 387.20745145 305.66495948 387.20745145 305.48706055 402.5402832 C305.45477989 404.46046919 305.4214075 406.38063726 305.38671875 408.30078125 C305.38047485 409.3002478 305.37423096 410.29971436 305.36779785 411.32946777 C305.34785767 412.28333374 305.32791748 413.23719971 305.30737305 414.2199707 C305.29626999 415.04825882 305.28516693 415.87654694 305.27372742 416.72993469 C304.77869006 419.39312619 304.07384113 420.3172608 301.875 421.875 C298.3125 421.75 298.3125 421.75 294.875 420.875 C292.75568925 417.69603387 292.6280397 416.94525468 292.64794922 413.31176758 C292.64810028 412.39103958 292.64825134 411.47031158 292.64840698 410.52168274 C292.65872955 409.53097275 292.66905212 408.54026276 292.6796875 407.51953125 C292.68393234 405.99437141 292.68393234 405.99437141 292.68826294 404.43840027 C292.69946617 401.18798092 292.72457114 397.93783619 292.75 394.6875 C292.76002961 392.48503002 292.76915549 390.28255572 292.77734375 388.08007812 C292.79940595 382.67829157 292.83288492 377.27666541 292.875 371.875 C291.33779297 371.90980469 291.33779297 371.90980469 289.76953125 371.9453125 C288.40886149 371.96408036 287.0481838 371.98227947 285.6875 372 C285.01396484 372.01675781 284.34042969 372.03351563 283.64648438 372.05078125 C279.59044996 372.09035232 276.50379019 371.72014755 272.875 369.875 C271.17157881 368.17157881 271.72119701 365.97408344 271.69799805 363.64355469 C271.68516281 362.5243866 271.67232758 361.40521851 271.65910339 360.25213623 C271.64802299 358.41803192 271.64802299 358.41803192 271.63671875 356.546875 C271.628647 355.2917511 271.62057526 354.0366272 271.61225891 352.74346924 C271.5983879 350.07340791 271.58738385 347.40347124 271.57983398 344.73339844 C271.57103968 342.01571776 271.55033252 339.29855941 271.51831055 336.58105469 C271.47534119 332.65283911 271.45941697 328.7252974 271.44921875 324.796875 C271.43171066 323.59842957 271.41420258 322.39998413 271.39616394 321.16522217 C271.4239801 310.16457678 273.83633405 300.14866556 279.875 290.875 C280.535 290.875 281.195 290.875 281.875 290.875 C281.875 290.215 281.875 289.555 281.875 288.875 C282.535 288.875 283.195 288.875 283.875 288.875 C284.1225 288.2871875 284.37 287.699375 284.625 287.09375 C288.62258142 279.99804297 297.35617837 276.05930001 304.875 273.875 C311.63380445 272.34486963 317.9757136 271.8413924 324.875 271.875 C324.81434943 252.52458154 324.73676793 233.17430062 324.63928509 213.82403183 C324.59440786 204.83842902 324.55497476 195.85286513 324.52856445 186.8671875 C324.50551879 179.03105258 324.47204795 171.19504166 324.42629844 163.35900521 C324.40245441 159.21370143 324.38366807 155.06851979 324.37738609 150.92314911 C324.37129502 147.0127929 324.35115205 143.10274885 324.32072449 139.1925087 C324.31200817 137.76562043 324.30820822 136.33869127 324.30999184 134.9117775 C324.32457977 117.83984717 320.26790241 101.45172254 308.09765625 88.8359375 C297.27954741 79.29166573 284.35673096 74.46899822 270 74.6640625 C254.00939532 75.74342832 241.61753101 82.03152638 230.875 93.875 C225.94953411 100.68796194 222.79638158 107.71651823 220.875 115.875 C220.70223447 116.42604432 220.52946894 116.97708864 220.35146809 117.54483128 C219.68641573 120.797272 219.73545393 124.00929147 219.74369812 127.31394958 C219.74158241 128.06617469 219.73946669 128.8183998 219.73728687 129.59341961 C219.73129172 132.11624943 219.73228673 134.63902915 219.7331543 137.16186523 C219.73012213 138.97072433 219.72660051 140.77958267 219.72262573 142.58843994 C219.71473506 146.48818993 219.70959091 150.38793075 219.70633507 154.2876873 C219.70041291 160.47291211 219.68385666 166.65807972 219.66499329 172.84327698 C219.65865536 174.96431252 219.65232974 177.08534809 219.64601612 179.20638371 C219.64285031 180.26889508 219.6396845 181.33140646 219.63642275 182.42611516 C219.59444584 196.82255913 219.56143254 211.2189775 219.54907227 225.61547852 C219.54064791 235.32794291 219.5179901 245.04026642 219.4797166 254.75266033 C219.46008925 259.88359434 219.44750627 265.01431839 219.45255089 270.14529228 C219.45725436 274.98896724 219.44308677 279.83224686 219.41553879 284.67584229 C219.40871938 286.43598698 219.40839812 288.1961734 219.41573906 289.95631599 C219.51518708 316.52387501 213.58521612 340.74714053 196.875 361.875 C196.36453125 362.6071875 195.8540625 363.339375 195.328125 364.09375 C194.84859375 364.6815625 194.3690625 365.269375 193.875 365.875 C193.215 365.875 192.555 365.875 191.875 365.875 C191.875 366.535 191.875 367.195 191.875 367.875 C191.215 367.875 190.555 367.875 189.875 367.875 C189.875 368.535 189.875 369.195 189.875 369.875 C189.215 369.875 188.555 369.875 187.875 369.875 C187.875 370.535 187.875 371.195 187.875 371.875 C166.00971091 390.65961262 141.35035352 397.72419188 112.875 395.875 C86.622514 393.51522598 64.23752465 379.69024857 47.41552734 359.80688477 C41.43417421 352.43593475 37.41450022 344.64638442 33.875 335.875 C33.46507812 334.86050781 33.05515625 333.84601563 32.6328125 332.80078125 C27.62608317 319.69923042 26.72225442 306.92949134 26.76147461 293.00170898 C26.76175718 291.62108868 26.76159738 290.24046824 26.7610321 288.85984802 C26.76074687 285.13734582 26.76659918 281.41487628 26.77360606 277.69238162 C26.77988533 273.79264923 26.780447 269.89291598 26.78163147 265.99317932 C26.78473135 258.61986749 26.79292655 251.2465706 26.80298096 243.87326533 C26.81418392 235.47418584 26.81966306 227.07510561 26.82467639 218.6760205 C26.83511036 201.40900505 26.85268366 184.14200411 26.875 166.875 C25.93108398 166.88877686 24.98716797 166.90255371 24.01464844 166.91674805 C22.7671582 166.92746338 21.51966797 166.93817871 20.234375 166.94921875 C19.00170898 166.96299561 17.76904297 166.97677246 16.49902344 166.9909668 C2.76849895 166.55159741 -8.88495261 159.67317105 -18.125 149.875 C-25.45082194 140.73149292 -30.3952788 131.60708705 -30.35205078 119.65454102 C-30.35234283 118.97076889 -30.35263489 118.28699677 -30.35293579 117.58250427 C-30.35155503 115.34783735 -30.33605393 113.1135141 -30.3203125 110.87890625 C-30.31657789 109.31949546 -30.31373304 107.76008232 -30.31173706 106.20066833 C-30.30413582 102.11538099 -30.28451786 98.03023801 -30.2623291 93.94500732 C-30.2417947 89.76869662 -30.23271917 85.59236237 -30.22265625 81.41601562 C-30.20126833 73.23561116 -30.16717524 65.05532359 -30.125 56.875 C-27.13373681 55.15293812 -25.01814287 54.63320077 -21.578125 54.6796875 C-20.31162109 54.68935547 -20.31162109 54.68935547 -19.01953125 54.69921875 C-18.14683594 54.71597656 -17.27414063 54.73273438 -16.375 54.75 C-15.04275391 54.76353516 -15.04275391 54.76353516 -13.68359375 54.77734375 C-11.49711942 54.80085423 -9.31119906 54.83371501 -7.125 54.875 C-7.13388245 54.23020187 -7.14276489 53.58540375 -7.1519165 52.92106628 C-7.24027679 46.22180021 -7.30068725 39.5226991 -7.34472656 32.82299805 C-7.36486617 30.32130207 -7.3921796 27.8196533 -7.42675781 25.31811523 C-7.47517103 21.72628139 -7.4979455 18.13506883 -7.515625 14.54296875 C-7.53627014 13.42101608 -7.55691528 12.29906342 -7.57818604 11.14311218 C-7.57848816 10.10225967 -7.57879028 9.06140717 -7.57910156 7.98901367 C-7.58798401 7.07190109 -7.59686646 6.15478851 -7.60601807 5.20988464 C-7.125 2.875 -7.125 2.875 -5.29193115 1.04756165 C-3.125 -0.125 -3.125 -0.125 0 0 Z M-19.125 65.875 C-19.186875 75.23875 -19.24875 84.6025 -19.3125 94.25 C-19.33981201 97.18696777 -19.36712402 100.12393555 -19.39526367 103.14990234 C-19.40403366 105.50357656 -19.41167638 107.85725536 -19.41796875 110.2109375 C-19.43331665 111.41210205 -19.44866455 112.6132666 -19.46447754 113.85083008 C-19.46741045 123.36713722 -18.31835007 131.66806578 -12.5625 139.5 C-11.96308594 140.33789062 -11.36367188 141.17578125 -10.74609375 142.0390625 C-10.21113281 142.64492187 -9.67617188 143.25078125 -9.125 143.875 C-8.465 143.875 -7.805 143.875 -7.125 143.875 C-7.125 144.535 -7.125 145.195 -7.125 145.875 C2.02907201 153.2761646 10.85359322 156.01570712 22.54296875 156.078125 C23.37782303 156.08382507 24.21267731 156.08952515 25.0728302 156.09539795 C26.83703353 156.10482168 28.60125425 156.11137146 30.36547852 156.11523438 C33.03629109 156.1249051 35.70632199 156.15593867 38.37695312 156.1875 C53.08604976 156.28035078 63.22744437 154.3433435 74.625 144.5 C79.76820666 138.49959223 82.67077051 132.42597536 84.875 124.875 C85.205 123.885 85.535 122.895 85.875 121.875 C85.96326965 120.04967414 85.99263203 118.22125311 85.98852539 116.39379883 C85.98834412 114.68891296 85.98834412 114.68891296 85.98815918 112.94958496 C85.98304321 111.75579224 85.97792725 110.56199951 85.97265625 109.33203125 C85.97164917 108.23419312 85.97064209 107.13635498 85.96960449 106.00524902 C85.96436752 101.89932208 85.95040628 97.79341 85.9375 93.6875 C85.916875 84.509375 85.89625 75.33125 85.875 65.875 C51.225 65.875 16.575 65.875 -19.125 65.875 Z M301.875 286.5 C300.885 286.95375 299.895 287.4075 298.875 287.875 C298.875 288.535 298.875 289.195 298.875 289.875 C297.823125 290.1534375 297.823125 290.1534375 296.75 290.4375 C290.18252223 293.72123889 286.59552709 300.10139658 283.90478516 306.73291016 C281.11260412 316.10710828 282.3871051 326.9879041 282.5625 336.625 C282.665625 344.6275 282.76875 352.63 282.875 360.875 C314.225 360.875 345.575 360.875 377.875 360.875 C381.25249965 324.51361232 381.25249965 324.51361232 367.625 293.125 C359.49232771 285.52156886 350.15770916 282.62861793 339.15625 282.609375 C338.45407349 282.60746155 337.75189697 282.6055481 337.02844238 282.60357666 C335.55623004 282.60222661 334.0840053 282.60583975 332.61181641 282.61425781 C330.38025741 282.62497475 328.14950322 282.61432254 325.91796875 282.6015625 C324.47656075 282.6028843 323.03515325 282.60544713 321.59375 282.609375 C319.65918945 282.61275879 319.65918945 282.61275879 317.68554688 282.61621094 C312.17068503 282.99074666 306.92637336 284.18478721 301.875 286.5 Z " fill="#252525" transform="translate(61.125,37.125)"/>
<path d="M0 0 C-1.42378947 3.36397926 -3.12610426 5.19643552 -5.9375 7.5 C-8.15041123 9.31996437 -9.92891607 10.90317584 -11.62890625 13.21875 C-12.08136719 13.8065625 -12.53382813 14.394375 -13 15 C-13.66 15 -14.32 15 -15 15 C-14.67 13.68 -14.34 12.36 -14 11 C-13.34 11 -12.68 11 -12 11 C-12 10.34 -12 9.68 -12 9 C-11.34 9 -10.68 9 -10 9 C-9.79375 8.443125 -9.5875 7.88625 -9.375 7.3125 C-7.41177961 4.01072025 -4.06489071 0 0 0 Z " fill="#606060" transform="translate(355,317)"/>
<path d="M0 0 C0.66 0.33 1.32 0.66 2 1 C-0.77779328 4.99307785 -2.49526679 7.21133443 -7.3125 8.375 C-8.529375 8.58125 -9.74625 8.7875 -11 9 C-8.77276018 6.66034429 -6.41043353 4.72900834 -3.8125 2.8125 C-3.09707031 2.28269531 -2.38164062 1.75289063 -1.64453125 1.20703125 C-1.10183594 0.80871094 -0.55914062 0.41039062 0 0 Z " fill="#898989" transform="translate(237,403)"/>
</svg>
